<svg xmlns="http://www.w3.org/2000/svg" viewBox="0 0 100 100" id="Cloudy-Sun--Streamline-Ux.svg" height="100" width="100"><desc>Cloudy Sun Streamline Illustration: https://streamlinehq.com</desc><path fill="#b8ecff" stroke="#b8ecff" stroke-miterlimit="10" d="M1.6049 50C1.6049 87.2545 41.9342 110.5386 74.1975 91.9114C89.171 83.2664 98.3951 67.2899 98.3951 50C98.3951 12.7455 58.0658 -10.5386 25.8025 8.0887C10.829 16.7336 1.6049 32.7101 1.6049 50" stroke-width="1"></path><path fill="#ffe500" d="M24.8769 35.4137C24.8769 46.8965 37.3074 54.0733 47.2518 48.3319C51.867 45.6673 54.7101 40.7429 54.7101 35.4137C54.7101 23.931 42.2796 16.7542 32.3352 22.4956C27.72 25.1602 24.8769 30.0846 24.8769 35.4137" stroke-width="1"></path><path d="M39.7935 25.8242C47.0012 25.8275 53.1748 30.9856 54.4596 38.0779C56.5625 26.7884 45.6556 17.4559 34.8271 21.2795C27.8982 23.7261 23.7829 30.854 25.1286 38.0779C26.4128 30.9858 32.5861 25.8276 39.7935 25.8242Z" fill="#fff48c" stroke-width="1"></path><path fill="none" stroke="#45413c" stroke-linecap="round" stroke-linejoin="round" d="M24.8769 35.4137C24.8769 46.8965 37.3074 54.0733 47.2518 48.3319C51.867 45.6673 54.7101 40.7429 54.7101 35.4137C54.7101 23.931 42.2796 16.7542 32.3352 22.4956C27.72 25.1602 24.8769 30.0846 24.8769 35.4137" stroke-width="1"></path><path d="M41.8358 46.956C39.552 46.9551 37.3641 47.8739 35.7658 49.5052C32.8235 41.8675 22.7165 40.2791 17.5732 46.646C16.4809 47.9982 15.7368 49.5977 15.406 51.3043C10.5368 51.9367 8.1781 57.6031 11.1604 61.5038C12.3752 63.0926 14.265 64.0197 16.265 64.008H41.8358C48.3977 63.9298 52.4142 56.7774 49.0656 51.1337C47.5484 48.5768 44.8087 46.995 41.8358 46.9596Z" fill="#daedf7" stroke-width="1"></path><path d="M50.2178 53.9019C49.0097 47.4573 41.2783 44.7372 36.3011 49.0057C36.1156 49.1648 35.937 49.3319 35.7658 49.5064C32.8238 41.8686 22.7169 40.2797 17.5734 46.6465C16.481 47.9986 15.7369 49.5978 15.406 51.3043C10.544 51.949 8.2032 57.6152 11.1925 61.5035C11.4466 61.8339 11.7325 62.1387 12.0462 62.4133C12.1059 59.6168 14.075 57.2259 16.8082 56.6313C17.637 51.7277 21.3804 48.0219 25.8823 48.0219C29.812 48.0219 33.1416 50.8542 34.4894 54.8335C35.8323 53.2606 39.7705 52.2843 41.8357 52.2843C45.6105 52.2843 48.7574 55.5509 49.216 59.7516C50.2371 57.9837 50.5925 55.9088 50.2178 53.9019Z" fill="#ffffff" stroke-width="1"></path><path d="M41.8358 46.956C39.552 46.9551 37.3641 47.8739 35.7658 49.5052C32.8235 41.8675 22.7165 40.2791 17.5732 46.646C16.4809 47.9982 15.7368 49.5977 15.406 51.3043C10.5368 51.9367 8.1781 57.6031 11.1604 61.5038C12.3752 63.0926 14.265 64.0197 16.265 64.008H41.8358C48.3977 63.9298 52.4142 56.7774 49.0656 51.1337C47.5484 48.5768 44.8087 46.995 41.8358 46.9596ZM39.7935 16.236V13.0395M53.355 21.8522L55.615 19.5934M58.9725 35.4137H62.1689M26.2332 21.8522L23.9731 19.5934M20.6157 35.4137H17.4192" fill="none" stroke="#45413c" stroke-linecap="round" stroke-linejoin="round" stroke-width="1"></path><path d="M84.202 57.9852C85.7531 51.6452 79.8592 46.0036 73.5931 47.8303C72.5832 48.1247 71.637 48.6044 70.8026 49.245C62.3173 39.2431 46.1865 42.1776 41.7673 54.5271C41.1072 56.3717 40.7702 58.3163 40.7711 60.2755V60.3844C40.4169 60.3247 40.0592 60.2884 39.7003 60.2755C33.1389 60.2752 29.038 67.378 32.3185 73.0605C33.841 75.6979 36.655 77.3226 39.7003 77.3226H78.0534C86.2429 77.3416 91.3818 68.4881 87.3035 61.3863C86.5302 60.0399 85.4716 58.879 84.202 57.9852Z" fill="#daedf7" stroke-width="1"></path><path d="M84.7585 74.9537C90.2596 70.5182 89.9819 62.0495 84.202 57.984C85.7531 51.644 79.8592 46.0024 73.5931 47.8291C72.5832 48.1235 71.637 48.6032 70.8026 49.2438C62.3173 39.2419 46.1865 42.1764 41.7673 54.5259C41.1072 56.3705 40.7702 58.3151 40.7711 60.2743V60.3832C40.4169 60.3235 40.0592 60.2872 39.7003 60.2743C33.1379 60.2736 29.0358 67.3772 32.3164 73.0607C32.9493 74.1572 33.8185 75.0989 34.8608 75.8175C32.5551 69.8609 37.5622 63.642 43.8736 64.6235C43.9066 64.6286 43.9395 64.634 43.9724 64.6395C43.9724 64.6032 43.9663 64.5681 43.9663 64.5318C43.9663 49.0938 62.4133 43.0662 69.5383 53.8776C75.7849 49.1349 82.657 55.3017 81.0067 62.2403C83.8334 64.2293 85.5166 67.4684 85.5196 70.9248C85.5258 72.3041 85.2674 73.6717 84.7585 74.9537Z" fill="#ffffff" stroke-width="1"></path><path d="M84.202 57.9852C85.7531 51.6452 79.8592 46.0036 73.5931 47.8303C72.5832 48.1247 71.637 48.6044 70.8026 49.245C62.3173 39.2431 46.1865 42.1776 41.7673 54.5271C41.1072 56.3717 40.7702 58.3163 40.7711 60.2755V60.3844C40.4169 60.3247 40.0592 60.2884 39.7003 60.2755C33.1389 60.2752 29.038 67.378 32.3185 73.0605C33.841 75.6979 36.655 77.3226 39.7003 77.3226H78.0534C86.2429 77.3416 91.3818 68.4881 87.3035 61.3863C86.5302 60.0399 85.4716 58.879 84.202 57.9852Z" fill="none" stroke="#45413c" stroke-linecap="round" stroke-linejoin="round" stroke-width="1"></path></svg>